 <svg
      width="142"
      height="36"
      viewBox="0 0 142 36"
      fill="none"
      xmlns="http://www.w3.org/2000/svg"
    >
      <path
        fill-rule="evenodd"
        clip-rule="evenodd"
        d="M-6.54504e-07 20.9564L-8.85997e-07 15.6604L11.2288 15.6604L3.28872 7.72037L7.03351 3.97558L14.9737 11.9158L14.9737 0.686828L20.2651 0.686828L20.2651 35.9296L20.2697 35.9296L20.2697 35.9297L14.9737 35.9297L14.9737 24.7008L7.03344 32.6411L3.28865 28.8963L11.2286 20.9564L-6.54504e-07 20.9564Z"
        fill="#252525"
      ></path>
      <g clip-path="url(#clip0_106_300)">
        <path
          d="M28.1641 8.27637H32.4948L42.2662 22.548L40.9484 23.3518V8.27637H45.2463V28.0543H40.9156L31.1442 13.7772L32.462 12.9734V28.0488H28.1641V8.27637Z"
          fill="#252525"
        ></path>
        <path
          d="M49.6362 27.3927C48.4442 26.7256 47.5037 25.807 46.8147 24.6423C46.1257 23.4776 45.7812 22.1762 45.7812 20.7436C45.7812 19.3109 46.1257 18.0095 46.8147 16.8448C47.5037 15.6801 48.4442 14.7615 49.6362 14.0944C50.8283 13.4273 52.1734 13.0938 53.6607 13.0938C55.148 13.0938 56.4385 13.4273 57.6469 14.0944C58.8499 14.7615 59.7959 15.6856 60.4848 16.8612C61.1738 18.0369 61.5183 19.3492 61.5183 20.8037C61.5183 21.3177 61.491 21.7497 61.4308 22.0942H49.3081V19.3164H58.1937L57.3626 20.749V20.5194C57.3626 19.7538 57.1985 19.0758 56.8759 18.4852C56.5533 17.8947 56.1049 17.4354 55.5417 17.1073C54.9785 16.7847 54.3497 16.6206 53.6662 16.6206C52.9827 16.6206 52.321 16.7902 51.7469 17.1346C51.1727 17.4791 50.7298 17.9658 50.4127 18.5946C50.0955 19.2234 49.9424 19.9398 49.9424 20.7436C49.9424 21.5474 50.1065 22.2855 50.4291 22.9089C50.7517 23.5323 51.2056 24.0134 51.7742 24.3579C52.3484 24.7024 52.9991 24.8719 53.7263 24.8719C54.4536 24.8719 55.1043 24.7243 55.6894 24.429C56.2744 24.1337 56.69 23.7565 56.9361 23.2971H61.234C60.72 24.8446 59.774 26.0804 58.4124 27.0099C57.0454 27.9395 55.4652 28.3988 53.6662 28.3988C52.1734 28.3988 50.8337 28.0653 49.6417 27.3982L49.6362 27.3927Z"
          fill="#252525"
        ></path>
        <path
          d="M65.0384 20.5739V20.8582L59.8492 13.4326H64.7486L68.4176 18.9936H66.9577L70.5994 13.4326H75.4714L70.2823 20.8582V20.5739L75.5535 28.0542H70.6213L66.8975 22.4385H68.3302L64.6064 28.0542H59.7617L65.0329 20.5739H65.0384Z"
          fill="#252525"
        ></path>
        <path
          d="M75.4277 13.4327H82.9955V17.1017H75.4277L75.4277 13.4327ZM75.4277 9.13477H79.4686V26.2771L77.6642 24.3578H82.9955V28.0542H75.4277V9.13477Z"
          fill="#252525"
        ></path>
      </g>
      <g clip-path="url(#clip1_106_300)">
        <path
          d="M89.3129 27.0201C87.7473 26.1408 86.5171 24.9348 85.6181 23.4086C84.719 21.8803 84.2695 20.1809 84.2695 18.3083C84.2695 16.4356 84.719 14.7362 85.6181 13.2079C86.5171 11.6817 87.7494 10.4779 89.3129 9.59641C90.8763 8.71711 92.6152 8.27637 94.5251 8.27637C96.1916 8.27637 97.7287 8.60967 99.1343 9.27407C100.54 9.93848 101.711 10.866 102.647 12.0567C103.583 13.2474 104.221 14.6003 104.559 16.1177H100.064C99.8009 15.3678 99.393 14.7077 98.8426 14.1354C98.29 13.5653 97.6432 13.1202 96.9042 12.8022C96.1631 12.4843 95.3737 12.3242 94.5295 12.3242C93.4243 12.3242 92.4178 12.5873 91.51 13.1114C90.6 13.6355 89.8896 14.3525 89.3743 15.2625C88.859 16.1703 88.6024 17.1877 88.6024 18.3104C88.6024 19.4331 88.859 20.4506 89.3743 21.3606C89.8896 22.2684 90.6 22.9854 91.51 23.5095C92.4178 24.0336 93.4243 24.2967 94.5295 24.2967C95.3737 24.2967 96.1631 24.1388 96.9042 23.8187C97.6432 23.5007 98.29 23.0556 98.8426 22.4855C99.3952 21.9132 99.8031 21.2531 100.064 20.5032H104.559C104.221 22.0206 103.586 23.3735 102.647 24.5642C101.711 25.7549 100.54 26.6824 99.1343 27.3468C97.7287 28.0112 96.1938 28.3445 94.5251 28.3445C92.6152 28.3445 90.8763 27.9038 89.3129 27.0245V27.0201Z"
          fill="#252525"
        ></path>
        <path
          d="M105.666 8.61426H111.117L117.018 22.7488H115.95L121.851 8.61426H127.245V28.0027H123.03V13.2783H124.098L117.888 28.0027H115.023L108.813 13.2783H109.881V28.0027H105.666V8.61426Z"
          fill="#252525"
        ></path>
        <path
          d="M131.701 27.5381C130.671 27.0052 129.855 26.2685 129.256 25.3322C128.658 24.3959 128.357 23.3565 128.357 22.2141H132.657C132.657 22.646 132.769 23.0429 132.995 23.4091C133.219 23.7731 133.528 24.0604 133.923 24.2665C134.315 24.4726 134.756 24.5757 135.243 24.5757C135.692 24.5757 136.096 24.4923 136.451 24.3235C136.806 24.1546 137.093 23.92 137.308 23.6218C137.523 23.3214 137.631 22.9947 137.631 22.6395C137.631 21.9838 137.335 21.4597 136.745 21.065C136.155 20.6725 135.289 20.3349 134.146 20.0542C132.517 19.6222 131.19 18.9293 130.171 17.9754C129.149 17.0216 128.64 15.6994 128.64 14.0131C128.64 12.9277 128.921 11.9475 129.485 11.077C130.048 10.2065 130.824 9.52235 131.818 9.02679C132.811 8.53122 133.916 8.28125 135.133 8.28125C136.35 8.28125 137.484 8.54 138.477 9.0531C139.47 9.5684 140.251 10.2701 140.823 11.1603C141.393 12.0506 141.681 13.0483 141.681 14.1535H137.381C137.381 13.761 137.282 13.3992 137.085 13.0724C136.887 12.7435 136.615 12.4914 136.269 12.3137C135.922 12.1361 135.534 12.0484 135.102 12.0484C134.67 12.0484 134.32 12.123 133.993 12.2721C133.664 12.4234 133.412 12.6383 133.234 12.9189C133.057 13.1996 132.967 13.511 132.967 13.8465C132.967 14.4473 133.234 14.9385 133.767 15.3222C134.3 15.7059 135.111 16.048 136.197 16.3484C137.957 16.8155 139.359 17.5062 140.398 18.414C141.437 19.324 141.957 20.6484 141.957 22.3895C141.957 23.5144 141.661 24.5296 141.071 25.4374C140.481 26.3474 139.665 27.0579 138.626 27.5732C137.587 28.0885 136.429 28.345 135.157 28.345C133.885 28.345 132.732 28.0775 131.701 27.5425V27.5381Z"
          fill="#252525"
        ></path>
      </g>
      <defs>
        <clipPath id="clip0_106_300">
          <rect
            width="54.7895"
            height="20.0638"
            fill="white"
            transform="translate(28.1641 8.27637)"
          ></rect>
        </clipPath>
        <clipPath id="clip1_106_300">
          <rect
            width="57.6872"
            height="20.0638"
            fill="white"
            transform="translate(84.2695 8.27637)"
          ></rect>
        </clipPath>
      </defs>
    </svg>