<svg width="418" height="104" viewBox="0 0 418 104" fill="none" xmlns="http://www.w3.org/2000/svg">
      <path fill-rule="evenodd" clip-rule="evenodd" d="M-1.92317e-06 59.5788L-2.60337e-06 44.0175L32.9936 44.0175L9.66307 20.6869L20.6666 9.68342L43.998 33.0149L43.998 0.0197506L59.5462 0.0197499L59.5462 103.576L43.998 103.576L43.998 70.5811L20.6663 93.9128L9.66282 82.9093L32.9933 59.5788L-1.92317e-06 59.5788Z" fill="#D5E1E1"></path>
      <g clip-path="url(#clip0_106_389)">
        <path d="M82.7422 22.3198H95.4673L124.179 64.2549L120.307 66.6167V22.3198H132.936V80.4344H120.211L91.4987 38.4833L95.3709 36.1214V80.4183H82.7422V22.3198Z" fill="#D5E1E1"></path>
        <path d="M145.839 78.49C142.336 76.5298 139.573 73.8305 137.548 70.4082C135.524 66.986 134.512 63.162 134.512 58.9524C134.512 54.7429 135.524 50.9189 137.548 47.4966C139.573 44.0743 142.336 41.3751 145.839 39.4149C149.342 37.4547 153.294 36.4746 157.664 36.4746C162.035 36.4746 165.826 37.4547 169.377 39.4149C172.912 41.3751 175.692 44.0904 177.716 47.5448C179.74 50.9992 180.753 54.8553 180.753 59.1292C180.753 60.6395 180.672 61.9088 180.496 62.921H144.875V54.7589H170.984L168.542 58.9685V58.2937C168.542 56.0443 168.06 54.052 167.112 52.3167C166.164 50.5815 164.846 49.2319 163.191 48.2678C161.537 47.3199 159.689 46.8379 157.68 46.8379C155.672 46.8379 153.728 47.3359 152.041 48.3482C150.354 49.3604 149.052 50.7904 148.121 52.6381C147.189 54.4858 146.739 56.5906 146.739 58.9524C146.739 61.3143 147.221 63.4833 148.169 65.315C149.117 67.1466 150.45 68.5605 152.121 69.5728C153.808 70.585 155.72 71.0831 157.857 71.0831C159.994 71.0831 161.906 70.6493 163.625 69.7816C165.344 68.914 166.566 67.8054 167.289 66.4557H179.917C178.407 71.0027 175.627 74.6339 171.627 77.3653C167.61 80.0967 162.966 81.4463 157.68 81.4463C153.294 81.4463 149.358 80.4662 145.855 78.506L145.839 78.49Z" fill="#D5E1E1"></path>
        <path d="M191.087 58.4538V59.2893L175.839 37.4702H190.235L201.016 53.8104H196.726L207.427 37.4702H221.743L206.495 59.2893V58.4538L221.984 80.4335H207.491L196.55 63.9327H200.759L189.817 80.4335H175.582L191.071 58.4538H191.087Z" fill="#D5E1E1"></path>
        <path d="M221.623 37.4715H243.86V48.2525H221.623L221.623 37.4715ZM221.623 24.8428H233.497V75.213L228.194 69.5735H243.86V80.4348H221.623V24.8428Z" fill="#D5E1E1"></path>
      </g>
      <g clip-path="url(#clip1_106_389)">
        <path d="M262.419 77.3955C257.818 74.8118 254.204 71.2681 251.562 66.7837C248.92 62.2929 247.6 57.2994 247.6 51.797C247.6 46.2946 248.92 41.3012 251.562 36.8104C254.204 32.326 257.825 28.7887 262.419 26.1986C267.013 23.6149 272.122 22.3198 277.734 22.3198C282.631 22.3198 287.147 23.2992 291.277 25.2514C295.407 27.2037 298.848 29.9291 301.599 33.4277C304.35 36.9263 306.225 40.9017 307.218 45.3604H294.009C293.236 43.1568 292.038 41.2175 290.42 39.5358C288.797 37.8606 286.896 36.5526 284.725 35.6184C282.547 34.6841 280.227 34.2138 277.747 34.2138C274.5 34.2138 271.542 34.987 268.875 36.5269C266.201 38.0668 264.113 40.1737 262.599 42.8476C261.085 45.515 260.331 48.5046 260.331 51.8035C260.331 55.1023 261.085 58.0919 262.599 60.7658C264.113 63.4333 266.201 65.5402 268.875 67.0801C271.542 68.62 274.5 69.3932 277.747 69.3932C280.227 69.3932 282.547 68.9292 284.725 67.9886C286.896 67.0543 288.797 65.7464 290.42 64.0711C292.044 62.3895 293.243 60.4501 294.009 58.2466H307.218C306.225 62.7052 304.357 66.6806 301.599 70.1792C298.848 73.6778 295.407 76.4033 291.277 78.3555C287.147 80.3078 282.637 81.2871 277.734 81.2871C272.122 81.2871 267.013 79.9921 262.419 77.4084V77.3955Z" fill="#D5E1E1"></path>
        <path d="M310.471 23.3125H326.488L343.827 64.8448H340.689L358.027 23.3125H373.877V80.2824H361.494V37.017H364.631L346.385 80.2824H337.963L319.717 37.017H322.854V80.2824H310.471V23.3125Z" fill="#D5E1E1"></path>
        <path d="M386.97 78.9164C383.942 77.3507 381.545 75.1858 379.786 72.4346C378.027 69.6834 377.145 66.6294 377.145 63.2725H389.779C389.779 64.5418 390.108 65.708 390.772 66.784C391.429 67.8535 392.337 68.6976 393.497 69.3032C394.65 69.9089 395.946 70.2117 397.376 70.2117C398.697 70.2117 399.882 69.9669 400.926 69.4708C401.97 68.9747 402.814 68.2852 403.445 67.409C404.077 66.5263 404.392 65.5662 404.392 64.5225C404.392 62.596 403.523 61.0561 401.789 59.8963C400.056 58.743 397.511 57.7508 394.154 56.926C389.367 55.6567 385.469 53.6207 382.473 50.818C379.47 48.0152 377.976 44.13 377.976 39.1753C377.976 35.9859 378.8 33.1059 380.456 30.548C382.112 27.9901 384.393 25.9798 387.312 24.5237C390.23 23.0675 393.478 22.333 397.054 22.333C400.63 22.333 403.961 23.0933 406.879 24.601C409.798 26.1151 412.092 28.1769 413.774 30.7928C415.449 33.4087 416.293 36.3403 416.293 39.5876H403.658C403.658 38.4343 403.368 37.3712 402.788 36.4112C402.208 35.4447 401.409 34.7038 400.391 34.1819C399.373 33.66 398.233 33.4023 396.964 33.4023C395.694 33.4023 394.663 33.6213 393.703 34.0595C392.737 34.504 391.996 35.1355 391.474 35.9602C390.952 36.7849 390.688 37.6998 390.688 38.6856C390.688 40.451 391.474 41.8943 393.04 43.0218C394.605 44.1494 396.989 45.1545 400.179 46.0372C405.352 47.4096 409.47 49.4392 412.524 52.1066C415.578 54.7805 417.105 58.6721 417.105 63.7879C417.105 67.0933 416.235 70.0764 414.502 72.7439C412.768 75.4178 410.372 77.5053 407.318 79.0195C404.264 80.5336 400.862 81.2874 397.125 81.2874C393.388 81.2874 389.999 80.5014 386.97 78.9292V78.9164Z" fill="#D5E1E1"></path>
      </g>
      <defs>
        <clipPath id="clip0_106_389">
          <rect width="160.991" height="58.9544" fill="white" transform="translate(82.7422 22.3203)"></rect>
        </clipPath>
        <clipPath id="clip1_106_389">
          <rect width="169.505" height="58.9544" fill="white" transform="translate(247.6 22.3203)"></rect>
        </clipPath>
      </defs>
    </svg>